<svg xmlns="http://www.w3.org/2000/svg" viewBox="0 0 693 800" width="693" height="800"><g transform="translate(0.0 1.0) rotate(0.0 346.5 399.5) scale(4.714285714285714 4.7)"><svg width="147" height="170" viewBox="0 0 147 170"><clipPath id="a"><path d="M0 0h146.864v169.584H0z"/></clipPath><g clip-path="url(#a)"><path d="M73.432 1.732 1.5 43.262v83.06l71.932 41.53 71.932-41.53v-83.06z" fill="#68AAA1" stroke="#1a1a1a" stroke-miterlimit="10" stroke-width="3"/></g></svg></g><g transform="translate(60.0 215.0) rotate(0.0 239.5 220.5) scale(1.5613031503120975 1.5619355250015938)"><svg width="306.795" height="282.342" viewBox="0 0 306.795 282.342"><g><circle cx="87.848" cy="95.379" r="87.848"/><circle cx="235.174" cy="235.708" r="46.635"/><circle cx="265.901" cy="40.894" r="40.894"/></g></svg></g><g transform="translate(684.0 384.0) rotate(99.13588773579002 -115.5 54.0) scale(-0.4750652443501169 0.4761107045556741)"><svg width="486.249" height="226.838" viewBox="0 0 486.249 226.838"><path d="M486.239 215.347 475.58 55.819a3.577 3.577 0 0 0-6.657-1.566l-41.744 71.421c-9.987-13.847-20.812-27.075-32.542-39.468-29.252-30.906-64.444-57-104.555-71.9C251.506-.032 208.727-4.038 168.33 4.318a179.628 179.628 0 0 0-56.83 22.034c-19.275 11.7-35.46 27.483-49.528 44.995a382.936 382.936 0 0 0-39.775 59.926C11.29 151.834 2.764 174.012.551 197.333a125.167 125.167 0 0 0-.422 17.459c.136 3.053 2.225 6.049 4.042 8.394a11.445 11.445 0 0 0 3.2 3.252c.381.2 1.66.877 1.614-.168h.001C6.87 178.977 32.344 135.722 59.045 98.664c13.41-18.612 28.429-36.377 46.78-50.314a171.592 171.592 0 0 1 52.8-26.909c38.755-12.063 81-11.363 119.969-.6 39.52 10.917 75.114 32.927 104.9 60.842a325.305 325.305 0 0 1 40.2 45.652c.467.637.93 1.276 1.394 1.915l-.743 1.271-87.492 12.22a3.576 3.576 0 0 0-1.083 6.752l143.485 70.533a4.852 4.852 0 0 0 6.984-4.679z"/></svg></g><g transform="translate(338.0 542.0) rotate(-154.74879645259068 -109.5 51.0) scale(-0.45038653035790305 0.44966010985813665)"><svg width="486.249" height="226.838" viewBox="0 0 486.249 226.838"><path d="M486.239 215.347 475.58 55.819a3.577 3.577 0 0 0-6.657-1.566l-41.744 71.421c-9.987-13.847-20.812-27.075-32.542-39.468-29.252-30.906-64.444-57-104.555-71.9C251.506-.032 208.727-4.038 168.33 4.318a179.628 179.628 0 0 0-56.83 22.034c-19.275 11.7-35.46 27.483-49.528 44.995a382.936 382.936 0 0 0-39.775 59.926C11.29 151.834 2.764 174.012.551 197.333a125.167 125.167 0 0 0-.422 17.459c.136 3.053 2.225 6.049 4.042 8.394a11.445 11.445 0 0 0 3.2 3.252c.381.2 1.66.877 1.614-.168h.001C6.87 178.977 32.344 135.722 59.045 98.664c13.41-18.612 28.429-36.377 46.78-50.314a171.592 171.592 0 0 1 52.8-26.909c38.755-12.063 81-11.363 119.969-.6 39.52 10.917 75.114 32.927 104.9 60.842a325.305 325.305 0 0 1 40.2 45.652c.467.637.93 1.276 1.394 1.915l-.743 1.271-87.492 12.22a3.576 3.576 0 0 0-1.083 6.752l143.485 70.533a4.852 4.852 0 0 0 6.984-4.679z"/></svg></g><g transform="translate(431.0 126.0) rotate(0.0 -107.0 49.5) scale(-0.44010373286114723 0.43643481250936794)"><svg width="486.249" height="226.838" viewBox="0 0 486.249 226.838"><path d="M486.239 215.347 475.58 55.819a3.577 3.577 0 0 0-6.657-1.566l-41.744 71.421c-9.987-13.847-20.812-27.075-32.542-39.468-29.252-30.906-64.444-57-104.555-71.9C251.506-.032 208.727-4.038 168.33 4.318a179.628 179.628 0 0 0-56.83 22.034c-19.275 11.7-35.46 27.483-49.528 44.995a382.936 382.936 0 0 0-39.775 59.926C11.29 151.834 2.764 174.012.551 197.333a125.167 125.167 0 0 0-.422 17.459c.136 3.053 2.225 6.049 4.042 8.394a11.445 11.445 0 0 0 3.2 3.252c.381.2 1.66.877 1.614-.168h.001C6.87 178.977 32.344 135.722 59.045 98.664c13.41-18.612 28.429-36.377 46.78-50.314a171.592 171.592 0 0 1 52.8-26.909c38.755-12.063 81-11.363 119.969-.6 39.52 10.917 75.114 32.927 104.9 60.842a325.305 325.305 0 0 1 40.2 45.652c.467.637.93 1.276 1.394 1.915l-.743 1.271-87.492 12.22a3.576 3.576 0 0 0-1.083 6.752l143.485 70.533a4.852 4.852 0 0 0 6.984-4.679z"/></svg></g><g transform="translate(98.0 290.0) rotate(0.0 114.5 63.5) scale(0.2582938843001307 0.259793392656234)"><svg width="886.587" height="488.85" viewBox="0 0 886.587 488.85"><g fill="#787878"><path d="M109.978 379.306h75.468v83.947h-75.468z"/><path d="M185.446 469.253h-75.468a6 6 0 0 1-6-6v-83.947a6 6 0 0 1 6-6h75.468a6 6 0 0 1 6 6v83.947a6 6 0 0 1-6 6zm-69.468-12h63.468v-71.947h-63.468zm98.411-151.311h75.468v157.311h-75.468z"/><path d="M289.857 469.253h-75.468a6 6 0 0 1-6-6V305.942a6 6 0 0 1 6-6h75.468a6 6 0 0 1 6 6v157.311a6 6 0 0 1-6 6zm-69.468-12h63.468V311.942h-63.468zm98.412-300.55h75.468v306.55h-75.468z"/><path d="M394.269 469.253H318.8a6 6 0 0 1-6-6V156.7a6 6 0 0 1 6-6h75.468a6 6 0 0 1 6 6v306.55a6 6 0 0 1-5.999 6.003zm-69.468-12h63.468V162.7H324.8zm98.412-391.59h75.468v397.59h-75.468z"/><path d="M498.68 469.253h-75.467a6 6 0 0 1-6-6V65.663a6 6 0 0 1 6-6h75.467a6 6 0 0 1 6 6v397.59a6 6 0 0 1-6 6zm-69.467-12h63.467V71.663h-63.467zm98.411-198.113h75.468v204.114h-75.468z"/><path d="M603.092 469.253h-75.468a6 6 0 0 1-6-6V259.14a6 6 0 0 1 6-6h75.468a6 6 0 0 1 6 6v204.113a6 6 0 0 1-6 6zm-69.468-12h63.468V265.14h-63.468zm98.412-248.294h75.468v254.294h-75.468z"/><path d="M707.5 469.253h-75.464a6 6 0 0 1-6-6V208.959a6 6 0 0 1 6-6H707.5a6 6 0 0 1 6 6v254.294a6 6 0 0 1-6 6zm-69.468-12H701.5V214.959h-63.464zm98.416-130.142h75.468v136.142h-75.468z"/><path d="M811.915 469.253h-75.467a6 6 0 0 1-6-6V327.111a6 6 0 0 1 6-6h75.467a6 6 0 0 1 6 6v136.142a6 6 0 0 1-6 6zm-69.467-12h63.467V333.111h-63.467z"/></g><path d="M880.587 469.253H25.6a6 6 0 0 1-6-6V6a6 6 0 0 1 12 0v451.253h848.99a6 6 0 0 1 0 12z" fill="#FFF"/><path d="M147.712 488.85a6 6 0 0 1-6-6v-19.6a6 6 0 1 1 12 0v19.6a6 6 0 0 1-6 6zm104.411 0a6 6 0 0 1-6-6v-19.6a6 6 0 0 1 12 0v19.6a6 6 0 0 1-6 6zm104.412 0a6 6 0 0 1-6-6v-19.6a6 6 0 0 1 12 0v19.6a6 6 0 0 1-6 6zm104.412 0a6 6 0 0 1-6-6v-19.6a6 6 0 0 1 12 0v19.6a6 6 0 0 1-6 6zm104.411 0a6 6 0 0 1-6-6v-19.6a6 6 0 1 1 12 0v19.6a6 6 0 0 1-6 6zm104.412 0a6 6 0 0 1-6-6v-19.6a6 6 0 1 1 12 0v19.6a6 6 0 0 1-6 6zm104.412 0a6 6 0 0 1-6-6v-19.6a6 6 0 1 1 12 0v19.6a6 6 0 0 1-6 6zM25.6 71.663H6a6 6 0 0 1 0-12h19.6a6 6 0 0 1 0 12zm0 104.548H6a6 6 0 0 1 0-12h19.6a6 6 0 1 1 0 12zm0 104.548H6a6 6 0 0 1 0-12h19.6a6 6 0 0 1 0 12zm0 104.547H6a6 6 0 0 1 0-12h19.6a6 6 0 0 1 0 12z" fill="#FFF"/></svg></g><g transform="translate(126.0 328.0) rotate(0.0 91.0 36.0) scale(0.16169154228855723 0.1578255151249452)"><svg width="1125.6" height="456.2" viewBox="0 0 1125.6 456.2"><path d="M5 456.2a5 5 0 0 1 0-10c38.2 0 73.1-17.4 110.1-54.7 33.5-33.8 64.6-79.9 97.4-128.7C295.4 139.6 389.5 0 562.8 0c80 0 152.2 22.4 220.8 68.5 59.6 40 108.6 92.7 151.8 139.1 63.4 68.2 118.2 127 185.2 127a5 5 0 0 1 0 10c-71.4 0-127.5-60.3-192.5-130.2-42.8-46.1-91.4-98.3-150-137.6C711.2 31.9 640.8 10 562.9 10 488 10 421.7 37.2 360.2 93c-54.4 49.4-97.5 113.4-139.2 175.3-33.1 49.2-64.4 95.7-98.6 130.2C83.3 437.9 46 456.2 5 456.2z" fill="#FFF"/></svg></g><g transform="translate(294.0 341.0) rotate(0.0 140.5 59.5) scale(1.0 1.0)"><svg width="281" height="119" viewBox="0 0 281 119"><g><path d="M43.75 72.06q-2.3-.02-3.91-1.13-1.61-1.11-2.32-3.1-.71-2-.43-4.55l.16-1.3q.58-4.72 2.87-7.23 2.3-2.5 5.85-2.42 2.6.07 4.08 1.63 1.49 1.56 1.74 4.35.14 1.67-.08 3.27l-.33 2.28h-9.49q-.09.76-.05 1.46.12 2.54 2.47 2.59 2.2.07 4.26-1.67l1.63 3.02q-.96 1.32-2.7 2.08-1.73.75-3.75.72Zm1.74-15.63q-2.09-.09-2.92 2.67l-.35 1.28 4.84.02q.17-1.02.19-1.65.07-2.23-1.76-2.32ZM66.62 71.7h-4.76q-.14-.59-.14-1.47-1.62 1.84-3.69 1.84-2.2-.03-3.53-1.61-1.33-1.59-1.22-3.94.16-3.02 2.35-4.74 2.2-1.71 5.91-1.71h1.42l.23-1.55.06-.79q0-1.53-1.23-1.53-1.71-.05-2.08 2.18l-4.83.04q.16-2.71 2.25-4.43 2.09-1.71 5.1-1.67 2.83.07 4.33 1.78t1.22 4.53l-1.55 9.66-.07.94q-.07 1.23.25 2.16l-.02.31Zm-7.26-3.51q1.28.03 2.39-1.13l.86-4.02h-1.05q-1.41.07-2.27.95-.86.88-1.04 2.21l-.01.67q0 .56.29.93t.83.39Zm22.47-15.65-.67 4.93-1.55-.18q-1.95-.03-3.15 1.85L74.27 71.7H69.4l3.3-19.01 4.56-.02-.39 2.09q.86-1.37 1.69-1.93.82-.55 1.77-.55.56 0 1.5.26Zm2.53.15 4.53-.02-.35 1.91q2-2.33 4.45-2.26 2 .03 3.05 1.5 1.04 1.47 1.03 4.17l-.11 1.62-2.02 12.09h-4.87l2-12.12.09-1.04q.07-2.06-1.54-2.06-.76 0-1.29.42-.53.41-.98.97L85.94 71.7h-4.89l3.31-19.01Z"/></g></svg></g><g transform="translate(342.0 330.0) rotate(0.0 152.0 82.5) scale(1.0 1.0)"><svg width="304" height="165" viewBox="0 0 304 165"><g><path d="m80.54 64.04-6.17 35.55h-6.84l-6.2-23.56-4.1 23.56h-7.01l6.15-35.55h6.86l6.23 23.59 4.1-23.59h6.98Zm13.19 8.65q4 .09 6.25 2.71 2.24 2.61 2.46 7v1.74q-.32 7.66-3.67 11.87-3.36 4.21-8.76 4.07-3.14-.08-5.2-1.7-2.05-1.62-2.94-4.5-.89-2.88-.5-6.62l.15-1.32q.71-6.22 3.98-9.8 3.27-3.58 8.23-3.45Zm-5.72 17.33q0 4.22 2.59 4.37 3.52.19 4.57-5.37l.26-1.76q.35-3.51.35-4.52 0-4.2-2.66-4.37-1.93-.09-3.18 1.79-1.24 1.88-1.59 5.43-.34 3.55-.34 4.43Zm20.58-16.85 6.3-.02-.49 2.66q2.79-3.25 6.18-3.15 2.78.05 4.24 2.09 1.45 2.04 1.43 5.8l-.15 2.24-2.81 16.8h-6.76l2.78-16.85.12-1.44q.1-2.85-2.14-2.85-1.05 0-1.79.57-.73.57-1.36 1.36l-3.35 19.21H104l4.59-26.42Zm31.86 26.91q-3.1-.1-4.83-2.66l-2.34 12.33h-6.74l6.35-36.58 6.15-.02-.37 2.44q2.42-2.98 5.5-2.93 3.46.05 5.17 2.64 1.71 2.59 1.54 7.42-.2 5.69-1.47 9.66-1.27 3.96-3.55 5.89-2.28 1.93-5.41 1.81Zm3.69-16.53.05-.9q0-2.3-.6-3.23-.6-.92-1.87-.97-1.8-.05-3.29 1.78l-2.2 12.45q.78 1.59 2.73 1.69 3.76.19 4.64-5.84l.54-4.98Zm27.61 16.04h-6.61q-.2-.83-.2-2.05-2.24 2.56-5.13 2.56-3.05-.05-4.89-2.24-1.84-2.2-1.7-5.47.22-4.2 3.27-6.58 3.06-2.38 8.21-2.38h1.97l.32-2.15.08-1.1q0-2.12-1.71-2.12-2.37-.08-2.88 3.02l-6.72.05q.22-3.76 3.13-6.14 2.9-2.38 7.08-2.33 3.93.1 6.01 2.48 2.09 2.38 1.7 6.29l-2.15 13.42-.09 1.3q-.1 1.71.34 3l-.03.44Zm-10.08-4.88q1.78.05 3.32-1.57l1.2-5.59h-1.47q-1.95.1-3.15 1.32-1.19 1.22-1.44 3.08l-.02.93q0 .78.4 1.29t1.16.54Zm31.2-21.73-.93 6.83-2.15-.24q-2.71-.05-4.37 2.56l-3.05 17.46h-6.76l4.59-26.42 6.32-.02-.53 2.9q1.19-1.9 2.34-2.67t2.47-.77q.78 0 2.07.37Zm17.55 26.61h-6.61q-.2-.83-.2-2.05-2.24 2.56-5.12 2.56-3.06-.05-4.9-2.24-1.84-2.2-1.7-5.47.22-4.2 3.28-6.58 3.05-2.38 8.2-2.38h1.98l.31-2.15.08-1.1q0-2.12-1.71-2.12-2.37-.08-2.88 3.02l-6.72.05q.22-3.76 3.13-6.14 2.9-2.38 7.08-2.33 3.93.1 6.02 2.48 2.08 2.38 1.69 6.29l-2.14 13.42-.1 1.3q-.1 1.71.34 3l-.03.44Zm-10.08-4.88q1.78.05 3.32-1.57l1.2-5.59h-1.47q-1.95.1-3.15 1.32-1.19 1.22-1.44 3.08l-.02.93q0 .78.4 1.29t1.16.54Zm18.58-21.54 6.25-.02-.44 2.49q2.74-3.05 6.23-2.95 3.78.09 4.93 3.56 3-3.66 6.69-3.59 2.78.05 4.26 2.09t1.45 5.8l-.12 2.24-2.78 16.8h-6.77l2.81-16.85.12-1.36q.2-2.93-1.95-2.93-1.73 0-3.17 2.37l-.15 1.17-3.05 17.6h-6.74l2.78-16.8.15-1.36q.19-2.98-1.93-2.98-1.03 0-1.75.57t-1.33 1.36l-3.34 19.21h-6.74l4.59-26.42Z"/></g></svg></g></svg>