<svg xmlns="http://www.w3.org/2000/svg" viewBox="0 0 693 800" width="693" height="800"><g transform="translate(0.0 0.0) rotate(0.0 346.5 399.5) scale(4.714285714285714 4.7)"><svg width="147" height="170" viewBox="0 0 147 170"><clipPath id="a"><path d="M0 0h146.864v169.584H0z"/></clipPath><g clip-path="url(#a)"><path d="M73.432 1.732 1.5 43.262v83.06l71.932 41.53 71.932-41.53v-83.06z" fill="#68AAA1" stroke="#1a1a1a" stroke-miterlimit="10" stroke-width="3"/></g></svg></g><g transform="translate(52.0 215.0) rotate(0.0 239.5 220.5) scale(1.5613031503120975 1.5619355250015938)"><svg width="306.795" height="282.342" viewBox="0 0 306.795 282.342"><g><circle cx="87.848" cy="95.379" r="87.848"/><circle cx="235.174" cy="235.708" r="46.635"/><circle cx="265.901" cy="40.894" r="40.894"/></g></svg></g><g transform="translate(717.0 381.0) rotate(98.18823261001396 -139.5 65.0) scale(-0.5737801003189723 0.5730962184466447)"><svg width="486.249" height="226.838" viewBox="0 0 486.249 226.838"><path d="M486.239 215.347 475.58 55.819a3.577 3.577 0 0 0-6.657-1.566l-41.744 71.421c-9.987-13.847-20.812-27.075-32.542-39.468-29.252-30.906-64.444-57-104.555-71.9C251.506-.032 208.727-4.038 168.33 4.318a179.628 179.628 0 0 0-56.83 22.034c-19.275 11.7-35.46 27.483-49.528 44.995a382.936 382.936 0 0 0-39.775 59.926C11.29 151.834 2.764 174.012.551 197.333a125.167 125.167 0 0 0-.422 17.459c.136 3.053 2.225 6.049 4.042 8.394a11.445 11.445 0 0 0 3.2 3.252c.381.2 1.66.877 1.614-.168h.001C6.87 178.977 32.344 135.722 59.045 98.664c13.41-18.612 28.429-36.377 46.78-50.314a171.592 171.592 0 0 1 52.8-26.909c38.755-12.063 81-11.363 119.969-.6 39.52 10.917 75.114 32.927 104.9 60.842a325.305 325.305 0 0 1 40.2 45.652c.467.637.93 1.276 1.394 1.915l-.743 1.271-87.492 12.22a3.576 3.576 0 0 0-1.083 6.752l143.485 70.533a4.852 4.852 0 0 0 6.984-4.679z"/></svg></g><g transform="translate(330.0 542.0) rotate(-154.74879645259068 -109.5 51.0) scale(-0.45038653035790305 0.44966010985813665)"><svg width="486.249" height="226.838" viewBox="0 0 486.249 226.838"><path d="M486.239 215.347 475.58 55.819a3.577 3.577 0 0 0-6.657-1.566l-41.744 71.421c-9.987-13.847-20.812-27.075-32.542-39.468-29.252-30.906-64.444-57-104.555-71.9C251.506-.032 208.727-4.038 168.33 4.318a179.628 179.628 0 0 0-56.83 22.034c-19.275 11.7-35.46 27.483-49.528 44.995a382.936 382.936 0 0 0-39.775 59.926C11.29 151.834 2.764 174.012.551 197.333a125.167 125.167 0 0 0-.422 17.459c.136 3.053 2.225 6.049 4.042 8.394a11.445 11.445 0 0 0 3.2 3.252c.381.2 1.66.877 1.614-.168h.001C6.87 178.977 32.344 135.722 59.045 98.664c13.41-18.612 28.429-36.377 46.78-50.314a171.592 171.592 0 0 1 52.8-26.909c38.755-12.063 81-11.363 119.969-.6 39.52 10.917 75.114 32.927 104.9 60.842a325.305 325.305 0 0 1 40.2 45.652c.467.637.93 1.276 1.394 1.915l-.743 1.271-87.492 12.22a3.576 3.576 0 0 0-1.083 6.752l143.485 70.533a4.852 4.852 0 0 0 6.984-4.679z"/></svg></g><g transform="translate(423.0 129.0) rotate(0.0 -107.0 49.5) scale(-0.44010373286114723 0.43643481250936794)"><svg width="486.249" height="226.838" viewBox="0 0 486.249 226.838"><path d="M486.239 215.347 475.58 55.819a3.577 3.577 0 0 0-6.657-1.566l-41.744 71.421c-9.987-13.847-20.812-27.075-32.542-39.468-29.252-30.906-64.444-57-104.555-71.9C251.506-.032 208.727-4.038 168.33 4.318a179.628 179.628 0 0 0-56.83 22.034c-19.275 11.7-35.46 27.483-49.528 44.995a382.936 382.936 0 0 0-39.775 59.926C11.29 151.834 2.764 174.012.551 197.333a125.167 125.167 0 0 0-.422 17.459c.136 3.053 2.225 6.049 4.042 8.394a11.445 11.445 0 0 0 3.2 3.252c.381.2 1.66.877 1.614-.168h.001C6.87 178.977 32.344 135.722 59.045 98.664c13.41-18.612 28.429-36.377 46.78-50.314a171.592 171.592 0 0 1 52.8-26.909c38.755-12.063 81-11.363 119.969-.6 39.52 10.917 75.114 32.927 104.9 60.842a325.305 325.305 0 0 1 40.2 45.652c.467.637.93 1.276 1.394 1.915l-.743 1.271-87.492 12.22a3.576 3.576 0 0 0-1.083 6.752l143.485 70.533a4.852 4.852 0 0 0 6.984-4.679z"/></svg></g><g transform="translate(90.0 290.0) rotate(0.0 114.5 63.5) scale(0.2582938843001307 0.259793392656234)"><svg width="886.587" height="488.85" viewBox="0 0 886.587 488.85"><g fill="#68AAA1"><path d="M109.978 379.306h75.468v83.947h-75.468z"/><path d="M185.446 469.253h-75.468a6 6 0 0 1-6-6v-83.947a6 6 0 0 1 6-6h75.468a6 6 0 0 1 6 6v83.947a6 6 0 0 1-6 6zm-69.468-12h63.468v-71.947h-63.468zm98.411-151.311h75.468v157.311h-75.468z"/><path d="M289.857 469.253h-75.468a6 6 0 0 1-6-6V305.942a6 6 0 0 1 6-6h75.468a6 6 0 0 1 6 6v157.311a6 6 0 0 1-6 6zm-69.468-12h63.468V311.942h-63.468zm98.412-300.55h75.468v306.55h-75.468z"/><path d="M394.269 469.253H318.8a6 6 0 0 1-6-6V156.7a6 6 0 0 1 6-6h75.468a6 6 0 0 1 6 6v306.55a6 6 0 0 1-5.999 6.003zm-69.468-12h63.468V162.7H324.8zm98.412-391.59h75.468v397.59h-75.468z"/><path d="M498.68 469.253h-75.467a6 6 0 0 1-6-6V65.663a6 6 0 0 1 6-6h75.467a6 6 0 0 1 6 6v397.59a6 6 0 0 1-6 6zm-69.467-12h63.467V71.663h-63.467zm98.411-198.113h75.468v204.114h-75.468z"/><path d="M603.092 469.253h-75.468a6 6 0 0 1-6-6V259.14a6 6 0 0 1 6-6h75.468a6 6 0 0 1 6 6v204.113a6 6 0 0 1-6 6zm-69.468-12h63.468V265.14h-63.468zm98.412-248.294h75.468v254.294h-75.468z"/><path d="M707.5 469.253h-75.464a6 6 0 0 1-6-6V208.959a6 6 0 0 1 6-6H707.5a6 6 0 0 1 6 6v254.294a6 6 0 0 1-6 6zm-69.468-12H701.5V214.959h-63.464zm98.416-130.142h75.468v136.142h-75.468z"/><path d="M811.915 469.253h-75.467a6 6 0 0 1-6-6V327.111a6 6 0 0 1 6-6h75.467a6 6 0 0 1 6 6v136.142a6 6 0 0 1-6 6zm-69.467-12h63.467V333.111h-63.467z"/></g><path d="M880.587 469.253H25.6a6 6 0 0 1-6-6V6a6 6 0 0 1 12 0v451.253h848.99a6 6 0 0 1 0 12z" fill="#FFF"/><path d="M147.712 488.85a6 6 0 0 1-6-6v-19.6a6 6 0 1 1 12 0v19.6a6 6 0 0 1-6 6zm104.411 0a6 6 0 0 1-6-6v-19.6a6 6 0 0 1 12 0v19.6a6 6 0 0 1-6 6zm104.412 0a6 6 0 0 1-6-6v-19.6a6 6 0 0 1 12 0v19.6a6 6 0 0 1-6 6zm104.412 0a6 6 0 0 1-6-6v-19.6a6 6 0 0 1 12 0v19.6a6 6 0 0 1-6 6zm104.411 0a6 6 0 0 1-6-6v-19.6a6 6 0 1 1 12 0v19.6a6 6 0 0 1-6 6zm104.412 0a6 6 0 0 1-6-6v-19.6a6 6 0 1 1 12 0v19.6a6 6 0 0 1-6 6zm104.412 0a6 6 0 0 1-6-6v-19.6a6 6 0 1 1 12 0v19.6a6 6 0 0 1-6 6zM25.6 71.663H6a6 6 0 0 1 0-12h19.6a6 6 0 0 1 0 12zm0 104.548H6a6 6 0 0 1 0-12h19.6a6 6 0 1 1 0 12zm0 104.548H6a6 6 0 0 1 0-12h19.6a6 6 0 0 1 0 12zm0 104.547H6a6 6 0 0 1 0-12h19.6a6 6 0 0 1 0 12z" fill="#FFF"/></svg></g><g transform="translate(118.0 328.0) rotate(0.0 91.0 36.0) scale(0.16169154228855723 0.1578255151249452)"><svg width="1125.6" height="456.2" viewBox="0 0 1125.6 456.2"><path d="M5 456.2a5 5 0 0 1 0-10c38.2 0 73.1-17.4 110.1-54.7 33.5-33.8 64.6-79.9 97.4-128.7C295.4 139.6 389.5 0 562.8 0c80 0 152.2 22.4 220.8 68.5 59.6 40 108.6 92.7 151.8 139.1 63.4 68.2 118.2 127 185.2 127a5 5 0 0 1 0 10c-71.4 0-127.5-60.3-192.5-130.2-42.8-46.1-91.4-98.3-150-137.6C711.2 31.9 640.8 10 562.9 10 488 10 421.7 37.2 360.2 93c-54.4 49.4-97.5 113.4-139.2 175.3-33.1 49.2-64.4 95.7-98.6 130.2C83.3 437.9 46 456.2 5 456.2z" fill="#FFF"/></svg></g><g transform="translate(253.0 266.0) rotate(0.0 191.5 123.5) scale(1.0 1.0)"><svg width="383" height="247" viewBox="0 0 383 247"><g><path d="M91.15 150.12q-4.8-.04-8.15-2.35-3.35-2.3-4.83-6.46-1.49-4.16-.9-9.47l.33-2.71q1.21-9.85 5.99-15.07 4.78-5.21 12.17-5.03 5.42.14 8.52 3.39 3.09 3.24 3.61 9.06.29 3.48-.15 6.81l-.7 4.76H87.27q-.19 1.58-.11 3.04.25 5.27 5.16 5.38 4.58.15 8.86-3.47l3.41 6.29q-2.01 2.75-5.62 4.33-3.61 1.57-7.82 1.5Zm3.63-32.56q-4.36-.18-6.08 5.57l-.74 2.67 10.07.04q.37-2.13.41-3.44.14-4.66-3.66-4.84Zm44.01 31.82h-9.92q-.29-1.24-.29-3.07-3.37 3.84-7.69 3.84-4.58-.07-7.35-3.37-2.76-3.29-2.54-8.2.33-6.3 4.91-9.87 4.57-3.57 12.3-3.57h2.97l.47-3.22.11-1.65q0-3.19-2.56-3.19-3.55-.1-4.32 4.55l-10.07.07q.33-5.64 4.68-9.21 4.36-3.57 10.62-3.5 5.9.15 9.03 3.72 3.13 3.57 2.55 9.43l-3.23 20.14-.14 1.94q-.15 2.56.51 4.51l-.04.65Zm-15.12-7.32q2.67.07 4.98-2.34l1.79-8.39h-2.19q-2.93.15-4.73 1.98-1.79 1.83-2.16 4.61l-.03 1.39q0 1.18.6 1.94.6.77 1.74.81Zm46.8-32.59-1.39 10.25-3.22-.36q-4.07-.08-6.56 3.84l-4.58 26.18h-10.14l6.88-39.62 9.49-.04-.81 4.36q1.8-2.85 3.52-4.01 1.72-1.15 3.7-1.15 1.17 0 3.11.55Zm5.27.29 9.45-.04-.73 4q4.18-4.87 9.27-4.73 4.17.07 6.35 3.13 2.18 3.06 2.14 8.7l-.22 3.37-4.21 25.19h-10.14l4.17-25.26.18-2.16q.15-4.29-3.22-4.29-1.57 0-2.67.86-1.1.86-2.05 2.03l-5.02 28.82h-10.18l6.88-39.62Z"/></g></svg></g><g transform="translate(241.0 342.0) rotate(0.0 228.0 123.5) scale(1.0 1.0)"><svg width="456" height="247" viewBox="0 0 456 247"><g><path d="m120.81 96.06-9.26 53.32h-10.26l-9.3-35.33-6.15 35.33H75.33l9.23-53.32h10.29l9.34 35.38 6.15-35.38h10.47Zm19.78 12.97q6 .14 9.37 4.06 3.37 3.92 3.7 10.51v2.6q-.47 11.5-5.51 17.82-5.03 6.32-13.13 6.1-4.72-.11-7.8-2.55-3.07-2.43-4.41-6.75-1.34-4.33-.75-9.93l.22-1.98q1.06-9.33 5.97-14.7 4.9-5.36 12.34-5.18Zm-8.57 26q0 6.33 3.88 6.55 5.27.3 6.85-8.05l.4-2.64q.51-5.27.51-6.77 0-6.3-3.99-6.56-2.89-.15-4.76 2.67-1.87 2.82-2.38 8.15-.51 5.33-.51 6.65Zm30.87-25.27 9.45-.04-.73 4q4.17-4.87 9.26-4.73 4.18.07 6.36 3.13 2.17 3.06 2.14 8.7l-.22 3.37-4.21 25.19h-10.15l4.18-25.26.18-2.16q.15-4.29-3.22-4.29-1.58 0-2.68.86-1.09.86-2.05 2.03l-5.01 28.82h-10.18l6.88-39.62Zm47.79 40.36q-4.65-.15-7.25-3.99l-3.52 18.49h-10.1l9.52-54.86 9.23-.04-.55 3.67q3.62-4.47 8.24-4.4 5.2.07 7.76 3.96 2.56 3.88 2.31 11.13-.29 8.53-2.2 14.48-1.9 5.95-5.33 8.85-3.42 2.89-8.11 2.71Zm5.53-24.8.07-1.35q0-3.44-.89-4.83-.9-1.4-2.8-1.47-2.71-.07-4.95 2.67l-3.29 18.68q1.17 2.38 4.1 2.53 5.64.29 6.96-8.75l.8-7.48Zm41.42 24.06h-9.92q-.3-1.24-.3-3.07-3.37 3.84-7.69 3.84-4.58-.07-7.34-3.37-2.77-3.29-2.55-8.2.33-6.3 4.91-9.87 4.58-3.57 12.31-3.57h2.96l.48-3.22.11-1.65q0-3.19-2.57-3.19-3.55-.1-4.32 4.55l-10.07.07q.33-5.64 4.69-9.21 4.36-3.57 10.62-3.5 5.9.15 9.03 3.72 3.13 3.57 2.54 9.43l-3.22 20.14-.15 1.94q-.14 2.56.52 4.51l-.04.65Zm-15.13-7.32q2.68.07 4.99-2.34l1.79-8.39h-2.2q-2.93.15-4.72 1.98-1.8 1.83-2.16 4.61l-.04 1.39q0 1.18.61 1.94.6.77 1.73.81Zm46.81-32.59-1.39 10.25-3.23-.36q-4.06-.08-6.55 3.84l-4.58 26.18h-10.14l6.88-39.62 9.49-.04-.81 4.36q1.79-2.85 3.52-4.01 1.72-1.15 3.69-1.15 1.18 0 3.12.55Zm26.33 39.91h-9.93q-.29-1.24-.29-3.07-3.37 3.84-7.69 3.84-4.58-.07-7.34-3.37-2.77-3.29-2.55-8.2.33-6.3 4.91-9.87 4.58-3.57 12.3-3.57h2.97l.48-3.22.11-1.65q0-3.19-2.57-3.19-3.55-.1-4.32 4.55l-10.07.07q.33-5.64 4.69-9.21 4.36-3.57 10.62-3.5 5.89.15 9.03 3.72 3.13 3.57 2.54 9.43l-3.22 20.14-.15 1.94q-.15 2.56.51 4.51l-.03.65Zm-15.13-7.32q2.68.07 4.98-2.34l1.8-8.39h-2.2q-2.93.15-4.72 1.98-1.8 1.83-2.16 4.61l-.04 1.39q0 1.18.6 1.94.61.77 1.74.81Zm27.87-32.3 9.38-.04-.66 3.74q4.1-4.58 9.34-4.43 5.67.14 7.39 5.35 4.51-5.5 10.04-5.39 4.17.07 6.39 3.13 2.21 3.06 2.18 8.7l-.19 3.37-4.17 25.19h-10.15l4.22-25.26.18-2.05q.29-4.4-2.93-4.4-2.6 0-4.76 3.55l-.22 1.76-4.58 26.4h-10.11l4.18-25.19.22-2.05q.29-4.47-2.89-4.47-1.54 0-2.62.86t-2 2.03l-5.02 28.82h-10.1l6.88-39.62Z"/></g></svg></g></svg>